/* XPM */
static char *a40fc083ed16448d91cac2e6f3587eafuGwsYgKfmfij7mF1[] = {
/* columns rows colors chars-per-pixel */
"64 64 3 1 ",
"  c black",
". c #6EB62A",
"X c white",
/* pixels */
"................................................................",
"................................................................",
"................................................................",
"................................................................",
"................................................................",
"................................................................",
"................................................................",
"................................................................",
"................................................................",
"................................................................",
"................................................................",
"................................................................",
"................................................................",
"................................................................",
"................XXXXXXXXXXXXXXXXXXXXXXXXXXXXXXXX................",
"...............XXXXXXXXXXXXXXXXXXXXXXXXXXXXXXXXXX...............",
"..............XXXXXXXXXXXXXXXXXXXXXXXXXXXXXXXXXXXX..............",
"..............XXXXXXXXXXXXXXXXXXXXXXXXXXXXXXXXXXXX..............",
"..............XXXXXXXXXXXXXXXXXXXXXXXXXXXXXXXXXXX ..............",
"..............XXXXXXXXXXXXXXXXXXXXXXXXXXXXXXXXXX  ..............",
"..............XXXXXX                             ...............",
"..............XXXXXX                            ................",
"..............XXXXXX ...........................................",
"..............XXXXXX ...........................................",
"..............XXXXXX ...........................................",
"..............XXXXXX ...........................................",
"..............XXXXXX ...........................................",
"..............XXXXXX ...........................................",
"..............XXXXXX ...........................................",
"..............XXXXXXXXXXXXXXXXXXXXXXXXXXXXXXXXXX................",
"..............XXXXXXXXXXXXXXXXXXXXXXXXXXXXXXXXXXX...............",
"..............XXXXXXXXXXXXXXXXXXXXXXXXXXXXXXXXXXXX..............",
"..............XXXXXXXXXXXXXXXXXXXXXXXXXXXXXXXXXXXX..............",
"..............XXXXXXXXXXXXXXXXXXXXXXXXXXXXXXXXXXX ..............",
"..............XXXXXXXXXXXXXXXXXXXXXXXXXXXXXXXXXX  ..............",
"..............XXXXXX                             ...............",
"..............XXXXXX                            ................",
"..............XXXXXX ...........................................",
"..............XXXXXX ...........................................",
"..............XXXXXX ...........................................",
"..............XXXXXX ...........................................",
"..............XXXXXX ...........................................",
"..............XXXXXX ...........................................",
"..............XXXXXX ...........................................",
"..............XXXXXXXXXXXXXXXXXXXXXXXXXXXXXXXXXXX...............",
"..............XXXXXXXXXXXXXXXXXXXXXXXXXXXXXXXXXXXX..............",
"..............XXXXXXXXXXXXXXXXXXXXXXXXXXXXXXXXXXXXX.............",
"..............XXXXXXXXXXXXXXXXXXXXXXXXXXXXXXXXXXXXX.............",
"...............XXXXXXXXXXXXXXXXXXXXXXXXXXXXXXXXXXX..............",
"................XXXXXXXXXXXXXXXXXXXXXXXXXXXXXXXXX ..............",
".................                                ...............",
"................................................................",
"................................................................",
"................................................................",
"................................................................",
"................................................................",
"................................................................",
"................................................................",
"................................................................",
"................................................................",
"................................................................",
"................................................................",
"................................................................",
"................................................................"
};
