/* XPM */
static char *_b010596f9e0465bc65055e757fc134ecUypBmToMnMWr1Ij[] = {
/* columns rows colors chars-per-pixel */
"64 64 3 1 ",
"  c black",
". c #DB1B1B",
"X c white",
/* pixels */
"................................................................",
"................................................................",
"................................................................",
"................................................................",
"................................................................",
"................................................................",
"................................................................",
"................................................................",
"................................................................",
"................................................................",
"................................................................",
".............XX.................................XX..............",
"............XXXX...............................XXXX.............",
"............XXXXX..............................XXXX.............",
"............XXXXXX.............................XXXX.............",
"............XXXXXXX............................XXXX.............",
"............XXXXXXXX...........................XXXX.............",
"............XXXXXXXXX..........................XXXX.............",
"............XXXX XXXXX.........................XXXX.............",
"............XXXX  XXXXX........................XXXX.............",
"............XXXX . XXXXX.......................XXXX.............",
"............XXXX .. XXXXX......................XXXX.............",
"............XXXX ... XXXXX.....................XXXX.............",
"............XXXX .... XXXXX....................XXXX.............",
"............XXXX ..... XXXXX...................XXXX.............",
"............XXXX ...... XXXXX..................XXXX.............",
"............XXXX ....... XXXXX.................XXXX.............",
"............XXXX ........ XXXXX................XXXX.............",
"............XXXX ......... XXXXX...............XXXX.............",
"............XXXX .......... XXXXX..............XXXX.............",
"............XXXX ........... XXXXX.............XXXX.............",
"............XXXX ............ XXXXX............XXXX.............",
"............XXXX ............. XXXXX...........XXXX.............",
"............XXXX .............. XXXXX..........XXXX.............",
"............XXXX ............... XXXXX.........XXXX.............",
"............XXXX ................ XXXXX........XXXX.............",
"............XXXX ................. XXXXX.......XXXX.............",
"............XXXX .................. XXXXX......XXXX.............",
"............XXXX ................... XXXXX.....XXXX.............",
"............XXXX .................... XXXXX....XXXX.............",
"............XXXX ..................... XXXXX...XXXX.............",
"............XXXX ...................... XXXXX..XXXX.............",
"............XXXX ....................... XXXXX.XXXX.............",
"............XXXX ........................ XXXXXXXXX.............",
"............XXXX ......................... XXXXXXXX.............",
"............XXXX .......................... XXXXXXX.............",
"............XXXX ........................... XXXXXX.............",
"............XXXX ............................ XXXXX.............",
"............XXXX ............................. XXXX.............",
"............XXXX .............................. XX .............",
".............XX  ...............................  ..............",
".............  .................................................",
"................................................................",
"................................................................",
"................................................................",
"................................................................",
"................................................................",
"................................................................",
"................................................................",
"................................................................",
"................................................................",
"................................................................",
"................................................................",
"................................................................"
};
