/* XPM */
static char *result[] = {
/* columns rows colors chars-per-pixel */
"128 64 126 2 ",
"   c #EDE32E",
".  c #EDE331",
"X  c #EEE437",
"o  c #EEE53A",
"O  c #EDE432",
"+  c #F2EB67",
"@  c #FAF7C7",
"#  c #FEFEF8",
"$  c #FEFEF6",
"%  c #EDE32B",
"&  c #EDE229",
"*  c #F1E95D",
"=  c #FAF7C3",
"-  c #FFFEFB",
";  c white",
":  c #FFFFFB",
">  c #F7F4C3",
",  c #E7DF5B",
"<  c #E2D927",
"1  c #E9DF2A",
"2  c #FAF8C7",
"3  c #EAE032",
"4  c #E3D92C",
"5  c #EAE02D",
"6  c #F1EA60",
"7  c #FBF8CD",
"8  c #C1C1C1",
"9  c #42423E",
"0  c #3E3B07",
"q  c #B3AC20",
"w  c #F2E82F",
"e  c #F0E62F",
"r  c #FFFFFC",
"t  c #C1C0B8",
"y  c #42423B",
"u  c #C2C2C4",
"i  c #434448",
"p  c #3B3910",
"a  c #A9A221",
"s  c #E8DE2D",
"d  c #F2EB6A",
"f  c #FBF9D0",
"g  c #BEBEC1",
"h  c #38383C",
"j  c #333105",
"k  c #B0A81F",
"l  c #F3E82F",
"z  c gray98",
"x  c #B6B6B6",
"c  c #3F3E3B",
"v  c #B4AC20",
"b  c #B3B3B6",
"n  c #343539",
"m  c #343105",
"M  c #B0A91F",
"N  c #C5C5C5",
"B  c #484849",
"V  c gray2",
"C  c #050401",
"Z  c #43400D",
"A  c #B7AF23",
"S  c #38393D",
"D  c #302E04",
"F  c #A69F1D",
"G  c #FBFBFB",
"H  c #F4F4F4",
"J  c #434343",
"K  c #EDE329",
"L  c #F2E82C",
"P  c #F0E62A",
"I  c gray",
"U  c gray22",
"Y  c gray70",
"T  c #343434",
"R  c #F1E733",
"E  c #080806",
"W  c #0A0901",
"Q  c #0D0D02",
"!  c #131208",
"~  c #53524B",
"^  c #C8C8C6",
"/  c #3B390F",
"(  c #A9A220",
")  c #EDE332",
"_  c #333002",
"`  c #B0A81B",
"'  c #F7EF5F",
"]  c #FDFAC4",
"[  c #302E05",
"{  c #E5DB29",
"}  c #E7E05E",
"|  c #F7F5CC",
" . c #B6B6B3",
".. c #3E3E36",
"X. c #424137",
"o. c #C0C0B5",
"O. c #3B380C",
"+. c #A9A21C",
"@. c #ECE55F",
"#. c #FBF8CC",
"$. c #F9F9FA",
"%. c #BAB9B7",
"&. c #494941",
"*. c #4D4D45",
"=. c #C5C5C2",
"-. c #F0E62E",
";. c #353539",
":. c #EEE433",
">. c #EFE866",
",. c #F0EEC5",
"<. c #F1F1F5",
"1. c #F1F1F4",
"2. c #F6F6F6",
"3. c gray73",
"4. c gray27",
"5. c #050501",
"6. c #BAB327",
"7. c #4E4B18",
"8. c #161610",
"9. c #181810",
"0. c #1C1B11",
"q. c #15140D",
"w. c #0C0B05",
"e. c #3F3D0C",
"r. c #ACA521",
"t. c #E0D62B",
/* pixels */
"                                                                                                                                                                                                                                                                ",
"                                                                                                                                                                                                                                                                ",
"                                                                                                                                                                                                                                                                ",
"                                                                                                                                                                                                                                                                ",
"                                                                                                                                                                                                                                                                ",
"                                                                                                                                                                                                                                                                ",
"                                                                                                                                                                                                                                                                ",
"                                                                                                                                                                                                                                                                ",
"                                                                                                                                                                                                                                                                ",
"                                                                                                                                                                                                                                                                ",
"                                                                                                                                                                                                                                                                ",
"                                                                                                                                                                                                                                                                ",
"                                                                                                                                                                                                                                                                ",
"                                                                                                                                                                                                                                                                ",
"                                                              . X o o o o X .                                                                                                     . X o o o o X .                                                               ",
"                                                            O + @ # $ $ # @ + O                                           . X o o o o X .                                       O + @ # $ $ # @ + O                                                             ",
"                                                      % & * = - ; ; ; ; ; ; : > , < 1                                   O + @ # $ $ # 2 + 3 4 4 5                         % & * = - ; ; ; ; ; ; : > , < 1                                                       ",
"                                                      % & 6 7 ; ; ; ; ; ; ; ; 8 9 0 q w e                         % & * = - ; ; ; ; ; ; r t y 0 q w e                     % & 6 7 ; ; ; ; ; ; ; ; 8 9 0 q w e                                                   ",
"                                                      % & 6 7 ; ; ; ; ; ; ; ; u i p a s                             O d f ; ; ; ; ; ; ; ; u i p a s                         O d f ; ; ; ; ; ; ; ; g h j k l e                                                   ",
"                                                      % & 6 7 ; ; ; ; ; ; ; ; ; z x c 0 v w e                 % & * = - ; ; ; ; ; ; ; ; ; ; z x c 0 v w e             % & * = - ; ; ; ; ; ; ; ; ; g h j k l e                                                   ",
"                                                      % & * = - ; ; ; ; ; ; ; ; ; g h j k l e                 % & 6 7 ; ; ; ; ; ; ; ; ; ; ; ; g h j k l e             % & 6 7 ; ; ; ; ; ; ; ; ; z b n m M l e                                                   ",
"                                                            O d f ; ; ; ; ; ; ; ; g h j k l e                   O d f ; ; ; ; ; ; ; ; ; ; ; ; u i p a s               % & 6 7 ; ; ; ; ; ; ; ; N B V C Z A w e                                                   ",
"                                                          % & 6 7 ; ; ; ; ; ; ; ; u i p a s               % & * = - ; ; ; ; ; ; ; ; ; ; ; ; ; ; z x c 0 v w e         % & 6 7 ; ; ; ; ; ; ; ; g S D F s                                                         ",
"                                                          % & 6 7 ; ; ; ; ; ; ; ; ; z x c 0 v w e         % & 6 7 ; ; ; ; ; ; ; ; ; ; ; ; ; ; ; ; g h j k l e         % & 6 7 ; ; ; ; ; ; ; ; g h j k l e                                                       ",
"                                                          % & * = - ; ; ; ; ; ; ; ; ; g h j k l e           O d f ; ; ; ; ; ; ; ; ; ; ; ; ; ; ; ; u i p a s             O d f ; ; ; ; ; ; ; ; g h j k l e                                                       ",
"                                                                O d f ; ; ; ; ; ; ; ; g h j k l e     % & * = - ; ; ; ; ; ; ; ; ; ; ; ; ; ; ; ; ; ; z x c 0 v w e % & * = - ; ; ; ; ; ; ; ; ; g h j k l e                                                       ",
"                                                              % & 6 7 ; ; ; ; ; ; ; ; g h j k l e     % & 6 7 ; ; ; ; ; ; ; ; G H H G ; ; ; ; ; ; ; ; g h j k l e % & 6 7 ; ; ; ; ; ; ; ; ; z b n m M l e                                                       ",
"                                                              % & 6 7 ; ; ; ; ; ; ; ; u i p a s         O d f ; ; ; ; ; ; ; ; 8 J J 8 ; ; ; ; ; ; ; ; u i p a s   % K 6 7 ; ; ; ; ; ; ; ; N B V C Z A w e                                                       ",
"                                                              % & 6 7 ; ; ; ; ; ; ; ; ; z x c 0 v L P * = - ; ; ; ; ; ; ; ; ; I U U I ; ; ; ; ; ; ; ; ; z x c 0 v L P 6 7 ; ; ; ; ; ; ; ; g S D F s                                                             ",
"                                                              % & * = - ; ; ; ; ; ; ; ; ; g h j k L P 6 7 ; ; ; ; ; ; ; ; ; z Y T T Y z ; ; ; ; ; ; ; ; ; g h j k L P 6 7 ; ; ; ; ; ; ; ; g h j k l e                                                           ",
"                                                                    O d f ; ; ; ; ; ; ; ; g h j k l R d f ; ; ; ; ; ; ; ; N B E W Q ! ~ ^ ; ; ; ; ; ; ; ; u i / ( s ) d f ; ; ; ; ; ; ; ; g h j k l e                                                           ",
"                                                                  % & 6 7 ; ; ; ; ; ; ; ; g h _ ` ' ] - ; ; ; ; ; ; ; ; ; g S [ F { < } | ; ; ; ; ; ; ; ; ; z  ...X.o.r ; ; ; ; ; ; ; ; ; g h j k l e                                                           ",
"                                                                  % & 6 7 ; ; ; ; ; ; ; ; u i O.+.@.#.; ; ; ; ; ; ; ; ; z b n m M L P * = - ; ; ; ; ; ; ; ; ; I U U I ; ; ; ; ; ; ; ; ; z b n m M l e                                                           ",
"                                                                  % & 6 7 ; ; ; ; ; ; ; ; ; $.%.&.*.=.; ; ; ; ; ; ; ; N B V C Z A w -.  O d f ; ; ; ; ; ; ; ; 8 J J 8 ; ; ; ; ; ; ; ; N B V C Z A w e                                                           ",
"                                                                  % & * = - ; ; ; ; ; ; ; ; ; G H H G ; ; ; ; ; ; ; ; g S D F s       % & 6 7 ; ; ; ; ; ; ; ; G H H G ; ; ; ; ; ; ; ; g S D F s                                                                 ",
"                                                                        O d f ; ; ; ; ; ; ; ; ; ; ; ; ; ; ; ; ; ; ; z b n m M l e     % & * = - ; ; ; ; ; ; ; ; ; ; ; ; ; ; ; ; ; ; ; g h j k l e                                                               ",
"                                                                      % & 6 7 ; ; ; ; ; ; ; ; ; ; ; ; ; ; ; ; ; ; N B V C Z A w e           O d f ; ; ; ; ; ; ; ; ; ; ; ; ; ; ; ; ; ; g h j k l e                                                               ",
"                                                                      % & 6 7 ; ; ; ; ; ; ; ; ; ; ; ; ; ; ; ; ; ; g S D F s               % & 6 7 ; ; ; ; ; ; ; ; ; ; ; ; ; ; ; ; ; z b n m M l e                                                               ",
"                                                                      % & * = - ; ; ; ; ; ; ; ; ; ; ; ; ; ; ; ; z b n m M l e             % & * = - ; ; ; ; ; ; ; ; ; ; ; ; ; ; ; N B V C Z A w e                                                               ",
"                                                                            O d f ; ; ; ; ; ; ; ; ; ; ; ; ; ; N B V C Z A w e                   O d f ; ; ; ; ; ; ; ; ; ; ; ; ; ; g S D F s                                                                     ",
"                                                                          % & 6 7 ; ; ; ; ; ; ; ; ; ; ; ; ; ; g S D F s                       % & 6 7 ; ; ; ; ; ; ; ; ; ; ; ; ; ; g h j k l e                                                                   ",
"                                                                          % & 6 7 ; ; ; ; ; ; ; ; ; ; ; ; ; z b n m M l e                     % & * = - ; ; ; ; ; ; ; ; ; ; ; ; ; g h j k l e                                                                   ",
"                                                                          % & 6 7 ; ; ; ; ; ; ; ; ; ; ; ; N B V C Z A w e                           O d f ; ; ; ; ; ; ; ; ; ; ; ; g h j k l e                                                                   ",
"                                                                          % & * = - ; ; ; ; ; ; ; ; ; ; ; g S D F s                               % & 6 7 ; ; ; ; ; ; ; ; ; ; ; z b n m M l e                                                                   ",
"                                                                                O d f ; ; ; ; ; ; ; ; ; z b n m M l e                             % & * = - ; ; ; ; ; ; ; ; ; N B V C Z A w e                                                                   ",
"                                                                              % & 6 7 ; ; ; ; ; ; ; ; N B V C Z A w e                                   O d f ; ; ; ; ; ; ; ; g S D F s                                                                         ",
"                                                                              % & * = - ; ; ; ; ; ; z b ;.[ F s                                       % & * = - ; ; ; ; ; ; z b n m M l e                                                                       ",
"                                                                                    :.>.,.<.1.H 2.3.4.V 5.Z A w e                                           :.>.,.<.1.H 2.3.4.V 5.Z A w e                                                                       ",
"                                                                                  -.w 6.7.8.9.0.0.q.w.e.r.s                                               -.w 6.7.8.9.0.0.q.w.e.r.s                                                                             ",
"                                                                                      5 4 t.t.t.t.t.t.4 5                                                     5 4 t.t.t.t.t.t.4 5                                                                               ",
"                                                                                                                                                                                                                                                                ",
"                                                                                                                                                                                                                                                                ",
"                                                                                                                                                                                                                                                                ",
"                                                                                                                                                                                                                                                                ",
"                                                                                                                                                                                                                                                                ",
"                                                                                                                                                                                                                                                                ",
"                                                                                                                                                                                                                                                                ",
"                                                                                                                                                                                                                                                                ",
"                                                                                                                                                                                                                                                                ",
"                                                                                                                                                                                                                                                                ",
"                                                                                                                                                                                                                                                                ",
"                                                                                                                                                                                                                                                                ",
"                                                                                                                                                                                                                                                                ",
"                                                                                                                                                                                                                                                                "
};
