/* XPM */
static char *_43393baf8e44146a9aadde54a547292CKyE3zSjpn0qLs6e[] = {
/* columns rows colors chars-per-pixel */
"64 64 3 1 ",
"  c black",
". c #2E219E",
"X c white",
/* pixels */
"................................................................",
"................................................................",
"................................................................",
"................................................................",
"................................................................",
"................................................................",
"................................................................",
"................................................................",
"................................................................",
"................................................................",
"................................................................",
"................................................................",
"................................................................",
"................................................................",
"................XXXXXXXXXXXXXXXXXXXXXXXXXXXXXXX.................",
"...............XXXXXXXXXXXXXXXXXXXXXXXXXXXXXXXXX................",
"..............XXXXXXXXXXXXXXXXXXXXXXXXXXXXXXXXXXX...............",
"..............XXXXXXXXXXXXXXXXXXXXXXXXXXXXXXXXXXX...............",
"..............XXXXXXXXXXXXXXXXXXXXXXXXXXXXXXXXXX ...............",
"..............XXXXXXXXXXXXXXXXXXXXXXXXXXXXXXXXX  ...............",
"..............XXXXXX                            ................",
"..............XXXXXX                           .................",
"..............XXXXXX ...........................................",
"..............XXXXXX ...........................................",
"..............XXXXXX ...........................................",
"..............XXXXXX ...........................................",
"..............XXXXXX ...........................................",
"..............XXXXXX ...........................................",
"..............XXXXXX ...........................................",
"..............XXXXXXXXXXXXXXXXXXXXXXXXXXXXXXXXX.................",
"..............XXXXXXXXXXXXXXXXXXXXXXXXXXXXXXXXXX................",
"..............XXXXXXXXXXXXXXXXXXXXXXXXXXXXXXXXXXX ..............",
"..............XXXXXXXXXXXXXXXXXXXXXXXXXXXXXXXXXXX ..............",
"...............XXXXXXXXXXXXXXXXXXXXXXXXXXXXXXXXXX ..............",
"................XXXXXXXXXXXXXXXXXXXXXXXXXXXXXXXXX ..............",
"................                           XXXXXX ..............",
"...........................................XXXXXX ..............",
"...........................................XXXXXX ..............",
"...........................................XXXXXX ..............",
"...........................................XXXXXX ..............",
"...........................................XXXXXX ..............",
"...........................................XXXXXX ..............",
"...........................................XXXXXX ..............",
"...........................................XXXXXX ..............",
"...........................................XXXXXX ..............",
"................XXXXXXXXXXXXXXXXXXXXXXXXXXXXXXXXX ..............",
"...............XXXXXXXXXXXXXXXXXXXXXXXXXXXXXXXXXX ..............",
"..............XXXXXXXXXXXXXXXXXXXXXXXXXXXXXXXXXXX ..............",
"..............XXXXXXXXXXXXXXXXXXXXXXXXXXXXXXXXXXX ..............",
"...............XXXXXXXXXXXXXXXXXXXXXXXXXXXXXXXXX  ..............",
"................XXXXXXXXXXXXXXXXXXXXXXXXXXXXXXX  ...............",
"................                                ................",
"................................................................",
"................................................................",
"................................................................",
"................................................................",
"................................................................",
"................................................................",
"................................................................",
"................................................................",
"................................................................",
"................................................................",
"................................................................",
"................................................................"
};
