/* XPM */
static char *_24d4f7beebb4f4b884f45769b78669fy4pfNXbaW6vnhg7I[] = {
/* columns rows colors chars-per-pixel */
"64 64 3 1 ",
"  c black",
". c #EDE32E",
"X c white",
/* pixels */
"................................................................",
"................................................................",
"................................................................",
"................................................................",
"................................................................",
"................................................................",
"................................................................",
"................................................................",
"................................................................",
"................................................................",
"................................................................",
"................................................................",
"................................................................",
"................................................................",
"................................................................",
"................XXX..........................XXX................",
"...............XXXXX...........XXX..........XXXXX...............",
"...............XXXXX .........XXXXX ........XXXXX ..............",
"...............XXXXX .........XXXXX ........XXXXX ..............",
"...............XXXXXX .......XXXXXXX ......XXXXXX ..............",
"...............XXXXXX .......XXXXXXX ......XXXXXX ..............",
"................XXXXX .......XXXXXXX ......XXXXX  ..............",
"................XXXXX ......XXXXXXXXX .....XXXXX ...............",
"................XXXXXX .....XXXXXXXXX .....XXXXX ...............",
"................XXXXXX .....XXXXXXXXX .....XXXXX ...............",
".................XXXXX ....XXXXXXXXXXX ...XXXXXX ...............",
".................XXXXX ....XXXXXXXXXXX ...XXXXXX ...............",
".................XXXXX ....XXXXX XXXXX ...XXXXX  ...............",
".................XXXXXX ..XXXXXX XXXXXX ..XXXXX ................",
".................XXXXXX ..XXXXXX XXXXXX ..XXXXX ................",
"..................XXXXX ..XXXXX   XXXXX ..XXXXX ................",
"..................XXXXX .XXXXXX ..XXXXXX XXXXXX ................",
"..................XXXXX .XXXXXX ..XXXXXX XXXXXX ................",
"..................XXXXXX XXXXX  ...XXXXX XXXXX  ................",
"..................XXXXXXXXXXXX ....XXXXXXXXXXX .................",
"...................XXXXXXXXXXX ....XXXXXXXXXXX .................",
"...................XXXXXXXXXX  .....XXXXXXXXXX .................",
"...................XXXXXXXXXX ......XXXXXXXXXX .................",
"...................XXXXXXXXXX ......XXXXXXXXX  .................",
"....................XXXXXXXX  .......XXXXXXXX ..................",
"....................XXXXXXXX ........XXXXXXXX ..................",
"....................XXXXXXXX ........XXXXXXXX ..................",
"....................XXXXXXX  .........XXXXXXX ..................",
"....................XXXXXXX ..........XXXXXXX ..................",
".....................XXXXXX ..........XXXXXX  ..................",
".....................XXXXX  ...........XXXXX ...................",
".....................XXXXX ............XXXXX ...................",
"......................XXX  .............XXX  ...................",
"......................    ..............    ....................",
"................................................................",
"................................................................",
"................................................................",
"................................................................",
"................................................................",
"................................................................",
"................................................................",
"................................................................",
"................................................................",
"................................................................",
"................................................................",
"................................................................",
"................................................................",
"................................................................",
"................................................................"
};
